<?xml version="1.0" encoding="utf-8"?>
<svg viewBox="0.226 0.327 28.41 26.943" width="28.41" height="26.943" xmlns="http://www.w3.org/2000/svg">
  <path d="M 17.783 22.218 L 21.264 11.144 L 26.597 11.144 L 20.89 26.945 L 14.673 26.945 L 8.769 11.144 L 14.103 11.144 Z" style="" transform="matrix(0.999316, 0.03699, -0.03699, 0.999316, 0.716557, -0.641061)"/>
  <path d="M 10.299 3.759 C 10.068 3.759 9.882 3.905 9.882 4.085 L 9.882 10.066 L 10.716 10.066 L 10.716 4.085 C 10.716 3.905 10.529 3.759 10.299 3.759 Z" style=""/>
  <path d="M 26.749 9.118 C 26.641 9.118 16.112 10.257 12.126 4.086 C 11.945 3.799 11.551 3.837 11.417 4.154 C 11.355 4.301 11.369 4.474 11.453 4.607 C 14.57 9.43 21.12 10.108 24.581 10.108 C 25.84 10.108 26.695 10.018 26.816 10.004 C 27.037 9.98 27.199 9.764 27.179 9.52 C 27.155 9.281 26.966 9.104 26.749 9.118 Z" style=""/>
  <path d="M 9.316 3.785 C 9.217 5.328 7.634 6.291 5.383 6.161 C 3.407 6.048 1.469 5.127 0.42 3.791 C 0.313 3.655 0.222 3.694 0.259 3.863 C 0.275 3.943 0.316 4.03 0.368 4.095 C 1.729 5.823 3.94 6.534 5.553 6.623 C 5.674 6.623 5.797 6.623 5.922 6.623 C 7.613 6.623 9.466 5.975 9.593 4.09 C 9.592 3.949 9.473 3.741 9.379 3.717 C 9.342 3.704 9.318 3.726 9.312 3.772 Z" style="" transform="matrix(0.999845, 0.017623, -0.017623, 0.999845, 0.091804, -0.085935)"/>
  <path d="M 28.499 2.835 C 27.581 1.977 26.247 1.936 25.288 2.738 C 24.349 0.037 21.117 -0.527 19.471 1.722 C 19.143 2.171 18.913 2.697 18.798 3.259 C 18.505 3.099 18.182 3.015 17.855 3.014 C 16.705 3.014 15.772 4.042 15.768 5.314 C 15.768 5.526 15.795 5.736 15.849 5.939 C 15.897 6.13 16.053 6.264 16.233 6.267 L 16.347 6.267 C 16.561 6.198 16.684 5.952 16.623 5.716 C 16.594 5.589 16.578 5.459 16.576 5.329 C 16.566 4.24 17.626 3.548 18.484 4.083 C 18.61 4.161 18.723 4.263 18.818 4.383 C 18.927 4.51 19.095 4.551 19.242 4.488 C 19.397 4.422 19.506 4.267 19.525 4.086 C 19.537 1.879 21.704 0.515 23.426 1.629 C 24.106 2.07 24.569 2.828 24.682 3.691 C 24.707 3.877 24.833 4.027 24.998 4.071 C 25.162 4.108 25.33 4.031 25.422 3.877 C 25.985 2.919 27.187 2.739 27.96 3.498 C 28.194 3.727 28.564 3.591 28.627 3.253 C 28.656 3.096 28.607 2.934 28.499 2.828 Z" style=""/>
</svg>